<svg xmlns="http://www.w3.org/2000/svg" width="33.685" height="37.678" viewBox="0 0 33.685 37.678">
  <g transform="translate(-0.157 -0.161)">
    <path d="M-6.139,2.254a1.115,1.115,0,0,0,1.1-1.127A1.115,1.115,0,0,0-6.139,0H-27.546a6.21,6.21,0,0,0-6.139,6.28v21.9a6.21,6.21,0,0,0,6.139,6.28H-6.139A6.21,6.21,0,0,0,0,28.178V10.144A1.115,1.115,0,0,0-1.1,9.017a1.115,1.115,0,0,0-1.1,1.127V28.178A3.981,3.981,0,0,1-6.139,32.2H-27.546a3.981,3.981,0,0,1-3.935-4.025V6.28a3.981,3.981,0,0,1,3.935-4.025Z" transform="translate(0.157 37.839) rotate(-180)" fill="#272727"/>
    <path d="M0,1.127A1.115,1.115,0,0,1,1.1,0,1.115,1.115,0,0,1,2.2,1.127V8.212A1.115,1.115,0,0,1,1.1,9.339,1.115,1.115,0,0,1,0,8.212Z" transform="translate(22.867 0.161)" fill="#272727"/>
    <path d="M0,1.127A1.115,1.115,0,0,1,1.1,0,1.115,1.115,0,0,1,2.2,1.127V8.212A1.115,1.115,0,0,1,1.1,9.339,1.115,1.115,0,0,1,0,8.212Z" transform="translate(9.016 0.161)" fill="#272727"/>
    <path d="M1.1,2.254A1.115,1.115,0,0,1,0,1.127,1.115,1.115,0,0,1,1.1,0H21.25a1.115,1.115,0,0,1,1.1,1.127,1.115,1.115,0,0,1-1.1,1.127Z" transform="translate(5.824 14.653)" fill="#272727"/>
    <ellipse cx="1.259" cy="1.288" rx="1.259" ry="1.288" transform="translate(7.87 20.61)" fill="#525252"/>
    <ellipse cx="1.259" cy="1.288" rx="1.259" ry="1.288" transform="translate(7.87 27.051)" fill="#525252"/>
    <ellipse cx="1.259" cy="1.288" rx="1.259" ry="1.288" transform="translate(15.426 20.61)" fill="#525252"/>
    <ellipse cx="1.259" cy="1.288" rx="1.259" ry="1.288" transform="translate(15.426 27.051)" fill="#525252"/>
    <ellipse cx="1.259" cy="1.288" rx="1.259" ry="1.288" transform="translate(22.981 20.61)" fill="#525252"/>
    <ellipse cx="1.259" cy="1.288" rx="1.259" ry="1.288" transform="translate(22.981 27.051)" fill="#525252"/>
  </g>
</svg>