<svg xmlns="http://www.w3.org/2000/svg" width="85.165" height="85.081" viewBox="0 0 85.165 85.081">
  <g transform="translate(-0.042 -0.39)">
    <path d="M0,35.029A34.935,34.935,0,0,1,34.84,0a1.579,1.579,0,0,1,1.579,1.57L36.6,33.386H68.372a1.58,1.58,0,0,1,1.58,1.58,34.976,34.976,0,0,1-34.933,34.9h-.087A34.936,34.936,0,0,1,0,35.029Z" transform="translate(0.042 15.602)" fill="#44f"/>
    <path d="M1.58,42.319A1.58,1.58,0,0,1,0,40.739V1.58A1.58,1.58,0,0,1,1.58,0,40.791,40.791,0,0,1,42.35,40.739a1.58,1.58,0,0,1-1.58,1.58Z" transform="translate(42.856 0.39)" fill="#44f"/>
  </g>
</svg>