<svg xmlns="http://www.w3.org/2000/svg" width="79.932" height="78.847" viewBox="0 0 79.932 78.847">
  <path d="M12.928,78.847v0L6.2,35.588l13.834-7.135,5.6-2.889,31.647,30.41L44.162,57.7,23.641,31.9l-.361.185L40.856,58.421,35.04,67.286,24.408,66.9l-11.5-29.471-.359.185,9.355,31.557-8.979,9.672Zm45.08-35.225a21.856,21.856,0,0,1-8.587-1.738A22.486,22.486,0,0,0,61.39,21.81,22.483,22.483,0,0,0,49.421,1.739a22.023,22.023,0,0,1,23.8,4.368,22.733,22.733,0,0,0,0,31.409A21.87,21.87,0,0,1,58.008,43.622ZM47.143,40.757h0a21.986,21.986,0,0,1-8-7.84,21.738,21.738,0,0,1,0-22.213,22,22,0,0,1,8.005-7.841A20.606,20.606,0,0,1,56.3,10.856a21.189,21.189,0,0,1,0,21.91,20.6,20.6,0,0,1-9.155,7.991Zm27.472-4.711h0a20.807,20.807,0,0,1,0-28.469,21.7,21.7,0,0,1,0,28.469ZM5.27,33.8h0L1.13,25.855A10.088,10.088,0,0,1,5.464,12.263l1.442-.743a10.153,10.153,0,0,1,4.634-1.125,10.276,10.276,0,0,1,5.217,1.424,10.042,10.042,0,0,1,3.811,4.013l4.14,7.95L5.271,33.8Z" transform="translate(0.003 0)" fill="#ff5252"/>
</svg>