<svg xmlns="http://www.w3.org/2000/svg" width="72.079" height="79" viewBox="0 0 72.079 79">
  <g transform="translate(-0.467)">
    <path d="M26.9,34.069c8.8-9.217,16.794-22.383,18.261-26.662-4.892,4.115-14.022,15.306-19.076,26a3.383,3.383,0,0,0-2.772-.659c-.815-6.089-2.609-17.775-12.881-21.4A5.534,5.534,0,0,1,0,8.723a5.523,5.523,0,0,1,5.543-5.6A5.338,5.338,0,0,1,10.924,7.9c7.988,2.469,11.9,9.381,13.858,15.635A32.211,32.211,0,0,1,50.87,0c2.445,17.117-8.642,32.259-23.153,36.208A4.872,4.872,0,0,0,26.9,34.069Z" transform="translate(21.337)" fill="#ff5252"/>
    <path d="M42.391,31.765C32.772,48.552,22.337,43.78,22.337,43.78c13.369-1.317,17.283-13.5,18.424-19.092A31.641,31.641,0,0,1,0,18.269a32.627,32.627,0,0,1,39.946-1.976C38.967,13,37.011,8.887,32.935,6.748a4.3,4.3,0,0,1-3.749,2.139,4.4,4.4,0,0,1-4.4-4.444A4.4,4.4,0,0,1,29.185,0a4.709,4.709,0,0,1,4.4,3.621c7.011,3.292,8.8,9.71,9.782,13.825a3.715,3.715,0,0,0-2.771,2.8,83.637,83.637,0,0,0-28.859-1.811C13.37,18.762,25.6,22.877,40.6,21.89a3.994,3.994,0,0,0,5.217,3.127C47.935,34.4,53.478,48.058,58.37,55.136c-1.631-9.546-6.521-22.055-11.413-30.613A4.436,4.436,0,0,0,48.1,23.207c6.521,4.279,23.641,17.281,13.532,40.817A32.569,32.569,0,0,1,42.391,31.765Z" transform="translate(0.467 14.977)" fill="#ff5252"/>
  </g>
</svg>