<svg xmlns="http://www.w3.org/2000/svg" width="85.039" height="88.631" viewBox="0 0 85.039 88.631">
  <g transform="translate(-0.653 -0.292)">
    <path d="M4.665,88.631A4.665,4.665,0,0,1,0,83.966V4.665A4.665,4.665,0,0,1,4.665,0H55.033A4.665,4.665,0,0,1,59.7,4.665a1.166,1.166,0,0,0,1.166,1.166H80.386A4.664,4.664,0,0,1,85.039,10.4v14a4.665,4.665,0,0,1-4.665,4.665H74.858a4.666,4.666,0,0,1,.2,1.259v10.5a4.663,4.663,0,0,1-1.049,2.916,4.659,4.659,0,0,1,1.049,2.915v10.5a4.664,4.664,0,0,1-4.665,4.665H59.7V86.3a1.749,1.749,0,0,1-2.1,1.714,6.385,6.385,0,0,1-2.565.618Z" transform="translate(0.653 0.292)" fill="#12d7a4"/>
    <path d="M32.9,0H1.749a1.749,1.749,0,0,0,0,3.5H32.9a1.749,1.749,0,0,0,0-3.5Z" transform="translate(14.286 18.834)" fill="#12d7a4"/>
    <path d="M32.9,0H1.749a1.749,1.749,0,0,0,0,3.5H32.9a1.749,1.749,0,0,0,0-3.5Z" transform="translate(14.286 30.496)" fill="#12d7a4"/>
    <path d="M32.9,0H1.749a1.749,1.749,0,0,0,0,3.5H32.9a1.749,1.749,0,0,0,0-3.5Z" transform="translate(14.286 42.298)" fill="#12d7a4"/>
    <path d="M32.9,0H1.749a1.749,1.749,0,1,0,0,3.5H32.9a1.749,1.749,0,0,0,0-3.5Z" transform="translate(14.286 53.96)" fill="#12d7a4"/>
    <path d="M21.237,0H1.749a1.749,1.749,0,0,0,0,3.5H21.237a1.749,1.749,0,0,0,0-3.5Z" transform="translate(14.286 65.622)" fill="#12d7a4"/>
  </g>
</svg>