<svg xmlns="http://www.w3.org/2000/svg" width="44" height="76.946" viewBox="0 0 44 76.946">
  <path d="M.637,5.283H9.586l.492-2.1L4.864,0,0,2.974.637,5.283Z" transform="translate(17.136 22.314)" fill="#ff5252"/>
  <path d="M.287,0,0,1.736,10.339,8.457,9.038,0Z" transform="translate(17.598 30.323)" fill="#ff5252"/>
  <path d="M0,7.581l17.083,9.645L15.795,8.872,1.274,0,0,7.581Z" transform="translate(14.316 44.047)" fill="#ff5252"/>
  <path d="M31.475,7.836,39.877,0H0L8.4,7.836Z" transform="translate(2.061)" fill="#ff5252"/>
  <path d="M0,6.108l13.488,8.241L12.419,7.418,1.026,0,0,6.108Z" transform="translate(16.078 35.035)" fill="#ff5252"/>
  <path d="M0,3.793,10.337,13.32l5.624-5.184L.637,0,0,3.793Z" transform="translate(11.663 63.625)" fill="#ff5252"/>
  <path d="M19.76,7.218V0L0,18.685l11.959,7.322,7.8-18.788Z" transform="translate(24.24 1.826)" fill="#ff5252"/>
  <path d="M0,0,8.654,8.183,17.308,0Z" transform="translate(13.346 10.562)" fill="#ff5252"/>
  <path d="M19.569,12.917l-.416-2.7L1.058,0,0,6.294l16.976,9.014,2.593-2.39Z" transform="translate(12.777 54.493)" fill="#ff5252"/>
  <path d="M19.76,18.685,0,0V7.218L7.8,26.006,19.76,18.685Z" transform="translate(0 1.826)" fill="#ff5252"/>
</svg>