<svg xmlns="http://www.w3.org/2000/svg" width="79" height="79" viewBox="0 0 79 79">
  <path d="M6.09,12.179a6.184,6.184,0,0,0,6.09-6.09A6.184,6.184,0,0,0,6.09,0,6.184,6.184,0,0,0,0,6.09,6.075,6.075,0,0,0,6.09,12.179Z" transform="translate(13.496 13.496)" fill="#ff6d54"/>
  <path d="M18.1,28.473c-.494-.165-1.152-.329-1.646-.494L9.875,36.537,13.99,26.5a9.871,9.871,0,0,1-1.317-1.317L2.633,29.3l8.558-6.583c-.165-.494-.329-.987-.493-1.646L0,19.586,10.7,17.94c.164-.494.328-1.152.493-1.646L2.633,9.71l10.04,4.115a3.047,3.047,0,0,1,1.317-1.152L9.875,2.633l6.583,8.558c.494-.165.987-.329,1.646-.493L19.586,0,20.9,10.7c.493.164,1.152.328,1.645.493l6.583-8.558-4.115,10.04a9.871,9.871,0,0,1,1.317,1.317L36.373,9.875l-8.558,6.583c.165.494.329.987.494,1.646l7.406.987v-.659a7.212,7.212,0,0,1,5.431-6.912,8.6,8.6,0,0,1-.494-2.963A8.5,8.5,0,0,1,49.21,0a7.968,7.968,0,0,1,5.926,2.633A7.852,7.852,0,0,1,58.1,1.975a6.714,6.714,0,0,1,5.926,3.292,6.991,6.991,0,0,1,1.81-.329,6.743,6.743,0,0,1,6.748,6.584A7.136,7.136,0,0,1,79,18.6a7.025,7.025,0,0,1-7.078,7.078H42.956a7.216,7.216,0,0,1-6.912-5.6l-7.571.987c-.165.494-.329,1.152-.494,1.646L36.537,29.3,26.5,25.181A9.871,9.871,0,0,1,25.181,26.5L29.3,36.537l-6.583-8.558c-.494.165-.987.329-1.646.494l-1.481,10.7Z" fill="#ff5252"/>
  <path d="M0,49.21,25.84,0l26,49.21Z" transform="translate(27.156 29.79)" fill="#ff5252"/>
  <path d="M0,37.854,19.914,0l11.85,22.055-8.393,15.8Z" transform="translate(0 41.146)" fill="#ff5252"/>
</svg>