<svg xmlns="http://www.w3.org/2000/svg" width="94.984" height="75.837" viewBox="0 0 94.984 75.837">
  <g transform="translate(-0.008 -0.391)">
    <path d="M64.283,75.837a36.57,36.57,0,0,1-12.66-2.373,32.5,32.5,0,0,1-13.8-9.886,32.157,32.157,0,0,1-16.868-1.49A32.075,32.075,0,0,1,.029,33.42a32.041,32.041,0,0,1,13.989-27.8A32.39,32.39,0,0,1,32.2,0h.158a31.905,31.905,0,0,1,11,2,32.456,32.456,0,0,1,13.831,9.919,32.032,32.032,0,0,1,5.712-.542h.124a32.117,32.117,0,0,1,31.929,30.7,31.652,31.652,0,0,1-2.005,12.528c-2.778,6.974-6.808,12.367-11.978,16.03A27.916,27.916,0,0,1,73.03,74.55a29.716,29.716,0,0,1-8.746,1.286h0ZM47.608,60.125h0a32.711,32.711,0,0,1-4.656,2.1A27.585,27.585,0,0,0,53.31,68.995a29.64,29.64,0,0,0,10.325,1.929c11.019,0,20.545-6.9,24.861-18.009A27.125,27.125,0,0,0,72.4,17.876a27.5,27.5,0,0,0-9.446-1.76h-.167A27.435,27.435,0,0,0,37.184,33.889a26.951,26.951,0,0,0-1.046,15.538,17.783,17.783,0,0,0,4.453-1.659A22.5,22.5,0,0,1,50.07,24.831,22.822,22.822,0,0,1,62.9,20.888h.088a22.621,22.621,0,0,1,7.759,1.422A22.557,22.557,0,0,1,84.043,51.323a23.528,23.528,0,0,1-8.8,11.241,21.564,21.564,0,0,1-11.895,3.456,25.349,25.349,0,0,1-8.417-1.46,22.422,22.422,0,0,1-7.321-4.435Zm-25-2.471A29.278,29.278,0,0,0,31.8,59.126c5.533,0,19.146-1.714,26.059-17.586A26.86,26.86,0,0,0,58.875,26.1a17.547,17.547,0,0,0-4.487,1.659c.012.043.02.077.029.118l0,.018a27.857,27.857,0,0,1-1.046,12.052,22.333,22.333,0,0,1-8.441,10.73,22.686,22.686,0,0,1-20.706,2.508A22.486,22.486,0,0,1,19.4,13.456,22.821,22.821,0,0,1,32.237,9.513h.088a22.942,22.942,0,0,1,15.08,5.823,32.01,32.01,0,0,1,4.622-2.065,27.378,27.378,0,0,0-19.7-8.531h-.094c-.429,0-.872.017-1.255.034-6.625.433-18.612,3.314-24.458,17.74a27.2,27.2,0,0,0,16.058,35.14h.034Z" transform="translate(0.008 0.391)" fill="#ff5252"/>
  </g>
</svg>